P2
16 16
255
220
255
220
220
220
221
222
225
229
233
238
245
248
249
255
248
255
220
220
220
220
221
222
225
229
234
238
245
248
248
248
255
220
220
221
220
220
221
222
225
229
234
239
245
249
248
248
248
220
220
220
220
221
221
223
224
228
234
239
244
248
248
248
248
209
209
209
210
209
210
211
0
0
222
228
233
235
236
235
235
185
184
184
184
184
187
0
0
0
0
201
205
207
208
207
207
157
157
158
158
159
159
0
165
166
0
172
174
176
175
176
176
134
134
133
134
134
0
0
137
138
0
0
142
143
143
142
143
116
116
117
116
116
0
0
0
0
0
0
112
112
112
112
112
110
110
109
109
0
0
0
0
0
0
0
0
87
86
87
87
112
113
113
113
0
0
90
81
73
69
0
0
70
70
71
71
124
124
124
123
0
0
90
76
66
61
0
0
67
67
69
68
130
130
130
130
123
107
92
76
64
59
60
66
71
70
70
71
130
130
130
130
123
109
91
76
64
59
60
66
70
69
69
69
255
130
129
130
123
108
92
75
64
59
60
67
70
69
71
255
130
255
129
130
124
107
91
75
65
58
61
66
69
69
255
71
