P3
16 16
255
0
255
0
255
255
255
0
255
0
0
255
0
13
255
0
42
255
0
75
255
0
110
255
0
145
255
0
180
255
0
213
255
0
242
255
0
255
255
0
255
255
0
255
255
255
255
255
0
255
255
255
0
255
0
0
255
0
0
255
0
13
255
0
42
255
0
75
255
0
110
255
0
145
255
0
180
255
0
213
255
0
242
255
0
255
255
0
255
255
0
255
255
0
255
255
255
0
255
0
0
255
0
0
255
0
0
255
0
13
255
0
42
255
0
75
255
0
110
255
0
145
255
0
180
255
0
213
255
0
242
255
0
255
255
0
255
255
0
255
255
0
255
255
0
0
255
0
0
255
0
0
255
0
0
255
0
13
255
0
42
255
0
75
255
0
110
255
0
145
255
0
180
255
0
213
255
0
242
255
0
255
255
0
255
255
0
255
255
0
255
255
0
13
242
0
13
242
0
13
242
0
13
242
0
24
242
1
50
242
2
80
242
4
0
0
0
0
0
0
175
242
9
205
242
11
231
242
12
242
242
13
242
242
13
242
242
13
242
242
13
42
213
0
42
213
0
42
213
0
42
213
0
50
213
2
70
213
7
0
0
0
0
0
0
0
0
0
0
0
0
185
213
35
205
213
40
213
213
42
213
213
42
213
213
42
213
213
42
75
180
0
75
180
0
75
180
0
75
180
0
80
180
4
92
180
12
0
0
0
120
180
32
135
180
42
0
0
0
163
180
62
175
180
71
180
180
75
180
180
75
180
180
75
180
180
75
110
145
0
110
145
0
110
145
0
110
145
0
111
145
6
0
0
0
0
0
0
125
145
47
130
145
62
0
0
0
0
0
0
144
145
104
145
145
110
145
145
110
145
145
110
145
145
110
145
110
0
145
110
0
145
110
0
145
110
0
144
110
7
0
0
0
0
0
0
0
0
0
0
0
0
0
0
0
0
0
0
111
110
138
110
110
145
110
110
145
110
110
145
110
110
145
180
75
0
180
75
0
180
75
0
180
75
0
0
0
0
0
0
0
0
0
0
0
0
0
0
0
0
0
0
0
0
0
0
0
0
0
75
75
180
75
75
180
75
75
180
75
75
180
213
42
0
213
42
0
213
42
0
213
42
0
0
0
0
0
0
0
163
42
63
139
42
92
116
42
121
92
42
151
0
0
0
0
0
0
42
42
213
42
42
213
42
42
213
42
42
213
242
13
0
242
13
0
242
13
0
242
13
0
0
0
0
0
0
0
175
13
71
143
13
105
112
13
138
80
13
171
0
0
0
0
0
0
13
13
242
13
13
242
13
13
242
13
13
242
255
0
0
255
0
0
255
0
0
255
0
0
242
0
13
213
0
42
180
0
75
145
0
110
110
0
145
75
0
180
42
0
213
13
0
242
0
0
255
0
0
255
0
0
255
0
0
255
255
0
0
255
0
0
255
0
0
255
0
0
242
0
13
213
0
42
180
0
75
145
0
110
110
0
145
75
0
180
42
0
213
13
0
242
0
0
255
0
0
255
0
0
255
0
0
255
255
255
255
255
0
0
255
0
0
255
0
0
242
0
13
213
0
42
180
0
75
145
0
110
110
0
145
75
0
180
42
0
213
13
0
242
0
0
255
0
0
255
0
0
255
255
255
255
255
0
0
255
255
255
255
0
0
255
0
0
242
0
13
213
0
42
180
0
75
145
0
110
110
0
145
75
0
180
42
0
213
13
0
242
0
0
255
0
0
255
255
255
255
0
0
255
