P2
7 5
255
0
0
0
63
63
63
255
0
0
0
63
63
63
255
127
127
127
130
220
70
248
127
127
127
130
220
70
145
130
220
70
130
220
70
228
