P2
7 5
65535
0
0
0
16383
16383
16383
65535
0
0
0
16383
16383
16383
65535
32767
32767
32767
33535
56575
18175
63743
32767
32767
32767
33535
56575
18175
37375
33535
56575
18175
33535
56575
18175
58623
