P3
7 5
255
0
0
0
0
0
0
0
0
0
63
63
63
63
63
63
63
63
63
255
255
255
0
0
0
0
0
0
0
0
0
63
63
63
63
63
63
63
63
63
255
255
255
127
127
127
127
127
127
127
127
127
255
0
0
0
255
0
0
0
255
255
255
0
127
127
127
127
127
127
127
127
127
255
0
0
0
255
0
0
0
255
255
0
255
255
0
0
0
255
0
0
0
255
255
0
0
0
255
0
0
0
255
0
255
255
