P1
7 5
1111110
1111110
1110001
1110001
0000001