P3
7 5
65535
0
0
0
0
0
0
0
0
0
16383
16383
16383
16383
16383
16383
16383
16383
16383
65535
65535
65535
0
0
0
0
0
0
0
0
0
16383
16383
16383
16383
16383
16383
16383
16383
16383
65535
65535
65535
32767
32767
32767
32767
32767
32767
32767
32767
32767
65535
0
0
0
65535
0
0
0
65535
65535
65535
0
32767
32767
32767
32767
32767
32767
32767
32767
32767
65535
0
0
0
65535
0
0
0
65535
65535
0
65535
65535
0
0
0
65535
0
0
0
65535
65535
0
0
0
65535
0
0
0
65535
0
65535
65535
